<svg xmlns="http://www.w3.org/2000/svg" version="1.1" xmlns:xlink="http://www.w3.org/1999/xlink" xmlns:svgjs="http://svgjs.dev/svgjs" viewBox="0 0 2400 800"><defs><linearGradient x1="50%" y1="0%" x2="50%" y2="100%" id="sssurf-grad"><stop stop-color="hsl(162, 100%, 58%)" stop-opacity="1" offset="0%"></stop><stop stop-color="hsl(270, 73%, 53%)" stop-opacity="1" offset="100%"></stop></linearGradient></defs><g fill="url(#sssurf-grad)" transform="matrix(1,0,0,1,11.2994384765625,-694.5163099765778)"><path d="M-10,10C11.314102564102562,20.208333333333332,51.76282051282051,76.70833333333333,92.3076923076923,59C132.8525641025641,41.29166666666667,146.15384615384616,-78.95833333333333,184.6153846153846,-75C223.07692307692307,-71.04166666666667,238.46153846153845,75.29166666666667,276.9230769230769,78C315.38461538461536,80.70833333333333,330.7692307692308,-75.54166666666667,369.2307692307692,-62C407.6923076923077,-48.45833333333333,423.0769230769231,153.20833333333334,461.53846153846155,143C500,132.79166666666666,515.3846153846154,-93.08333333333333,553.8461538461538,-111C592.3076923076923,-128.91666666666666,607.6923076923077,58.666666666666664,646.1538461538462,57C684.6153846153846,55.333333333333336,700,-134.83333333333334,738.4615384615385,-119C776.9230769230769,-103.16666666666667,792.3076923076923,128.625,830.7692307692307,133C869.2307692307692,137.375,884.6153846153846,-107.79166666666667,923.0769230769231,-98C961.5384615384615,-88.20833333333333,976.9230769230769,179.16666666666666,1015.3846153846154,180C1053.8461538461538,180.83333333333334,1069.230769230769,-65.66666666666666,1107.6923076923076,-94C1146.1538461538462,-122.33333333333334,1161.5384615384614,35.666666666666664,1200,44C1238.4615384615386,52.333333333333336,1253.846153846154,-72.33333333333333,1292.3076923076924,-54C1330.7692307692307,-35.66666666666667,1346.1538461538462,146.58333333333334,1384.6153846153845,132C1423.0769230769229,117.41666666666667,1438.4615384615383,-107.75,1476.923076923077,-124C1515.3846153846155,-140.25,1530.769230769231,53.583333333333336,1569.2307692307693,54C1607.6923076923076,54.416666666666664,1623.076923076923,-149.5,1661.5384615384614,-122C1699.9999999999998,-94.5,1715.3846153846152,172.45833333333334,1753.8461538461538,186C1792.3076923076924,199.54166666666666,1807.6923076923078,-36.583333333333336,1846.1538461538462,-57C1884.6153846153845,-77.41666666666666,1900,73.20833333333333,1938.4615384615383,88C1976.9230769230767,102.79166666666667,1992.3076923076924,-9.333333333333336,2030.7692307692307,14C2069.230769230769,37.333333333333336,2084.6153846153843,208.125,2123.076923076923,200C2161.5384615384614,191.875,2176.9230769230767,-4.166666666666664,2215.3846153846152,-25C2253.846153846154,-45.833333333333336,2269.230769230769,117.29166666666667,2307.6923076923076,100C2346.153846153846,82.70833333333333,2328.6858974358975,-170.5,2400,-108C2471.3141025641025,-45.5,3254.1666666666665,190,2650,400C2045.8333333333335,610,156.25,795.8333333333334,-500,900" transform="matrix(1,0,0,1,0,123)" opacity="0.05"></path><path d="M-10,10C11.314102564102562,20.208333333333332,51.76282051282051,76.70833333333333,92.3076923076923,59C132.8525641025641,41.29166666666667,146.15384615384616,-78.95833333333333,184.6153846153846,-75C223.07692307692307,-71.04166666666667,238.46153846153845,75.29166666666667,276.9230769230769,78C315.38461538461536,80.70833333333333,330.7692307692308,-75.54166666666667,369.2307692307692,-62C407.6923076923077,-48.45833333333333,423.0769230769231,153.20833333333334,461.53846153846155,143C500,132.79166666666666,515.3846153846154,-93.08333333333333,553.8461538461538,-111C592.3076923076923,-128.91666666666666,607.6923076923077,58.666666666666664,646.1538461538462,57C684.6153846153846,55.333333333333336,700,-134.83333333333334,738.4615384615385,-119C776.9230769230769,-103.16666666666667,792.3076923076923,128.625,830.7692307692307,133C869.2307692307692,137.375,884.6153846153846,-107.79166666666667,923.0769230769231,-98C961.5384615384615,-88.20833333333333,976.9230769230769,179.16666666666666,1015.3846153846154,180C1053.8461538461538,180.83333333333334,1069.230769230769,-65.66666666666666,1107.6923076923076,-94C1146.1538461538462,-122.33333333333334,1161.5384615384614,35.666666666666664,1200,44C1238.4615384615386,52.333333333333336,1253.846153846154,-72.33333333333333,1292.3076923076924,-54C1330.7692307692307,-35.66666666666667,1346.1538461538462,146.58333333333334,1384.6153846153845,132C1423.0769230769229,117.41666666666667,1438.4615384615383,-107.75,1476.923076923077,-124C1515.3846153846155,-140.25,1530.769230769231,53.583333333333336,1569.2307692307693,54C1607.6923076923076,54.416666666666664,1623.076923076923,-149.5,1661.5384615384614,-122C1699.9999999999998,-94.5,1715.3846153846152,172.45833333333334,1753.8461538461538,186C1792.3076923076924,199.54166666666666,1807.6923076923078,-36.583333333333336,1846.1538461538462,-57C1884.6153846153845,-77.41666666666666,1900,73.20833333333333,1938.4615384615383,88C1976.9230769230767,102.79166666666667,1992.3076923076924,-9.333333333333336,2030.7692307692307,14C2069.230769230769,37.333333333333336,2084.6153846153843,208.125,2123.076923076923,200C2161.5384615384614,191.875,2176.9230769230767,-4.166666666666664,2215.3846153846152,-25C2253.846153846154,-45.833333333333336,2269.230769230769,117.29166666666667,2307.6923076923076,100C2346.153846153846,82.70833333333333,2328.6858974358975,-170.5,2400,-108C2471.3141025641025,-45.5,3254.1666666666665,190,2650,400C2045.8333333333335,610,156.25,795.8333333333334,-500,900" transform="matrix(1,0,0,1,0,246)" opacity="0.11"></path><path d="M-10,10C11.314102564102562,20.208333333333332,51.76282051282051,76.70833333333333,92.3076923076923,59C132.8525641025641,41.29166666666667,146.15384615384616,-78.95833333333333,184.6153846153846,-75C223.07692307692307,-71.04166666666667,238.46153846153845,75.29166666666667,276.9230769230769,78C315.38461538461536,80.70833333333333,330.7692307692308,-75.54166666666667,369.2307692307692,-62C407.6923076923077,-48.45833333333333,423.0769230769231,153.20833333333334,461.53846153846155,143C500,132.79166666666666,515.3846153846154,-93.08333333333333,553.8461538461538,-111C592.3076923076923,-128.91666666666666,607.6923076923077,58.666666666666664,646.1538461538462,57C684.6153846153846,55.333333333333336,700,-134.83333333333334,738.4615384615385,-119C776.9230769230769,-103.16666666666667,792.3076923076923,128.625,830.7692307692307,133C869.2307692307692,137.375,884.6153846153846,-107.79166666666667,923.0769230769231,-98C961.5384615384615,-88.20833333333333,976.9230769230769,179.16666666666666,1015.3846153846154,180C1053.8461538461538,180.83333333333334,1069.230769230769,-65.66666666666666,1107.6923076923076,-94C1146.1538461538462,-122.33333333333334,1161.5384615384614,35.666666666666664,1200,44C1238.4615384615386,52.333333333333336,1253.846153846154,-72.33333333333333,1292.3076923076924,-54C1330.7692307692307,-35.66666666666667,1346.1538461538462,146.58333333333334,1384.6153846153845,132C1423.0769230769229,117.41666666666667,1438.4615384615383,-107.75,1476.923076923077,-124C1515.3846153846155,-140.25,1530.769230769231,53.583333333333336,1569.2307692307693,54C1607.6923076923076,54.416666666666664,1623.076923076923,-149.5,1661.5384615384614,-122C1699.9999999999998,-94.5,1715.3846153846152,172.45833333333334,1753.8461538461538,186C1792.3076923076924,199.54166666666666,1807.6923076923078,-36.583333333333336,1846.1538461538462,-57C1884.6153846153845,-77.41666666666666,1900,73.20833333333333,1938.4615384615383,88C1976.9230769230767,102.79166666666667,1992.3076923076924,-9.333333333333336,2030.7692307692307,14C2069.230769230769,37.333333333333336,2084.6153846153843,208.125,2123.076923076923,200C2161.5384615384614,191.875,2176.9230769230767,-4.166666666666664,2215.3846153846152,-25C2253.846153846154,-45.833333333333336,2269.230769230769,117.29166666666667,2307.6923076923076,100C2346.153846153846,82.70833333333333,2328.6858974358975,-170.5,2400,-108C2471.3141025641025,-45.5,3254.1666666666665,190,2650,400C2045.8333333333335,610,156.25,795.8333333333334,-500,900" transform="matrix(1,0,0,1,0,369)" opacity="0.17"></path><path d="M-10,10C11.314102564102562,20.208333333333332,51.76282051282051,76.70833333333333,92.3076923076923,59C132.8525641025641,41.29166666666667,146.15384615384616,-78.95833333333333,184.6153846153846,-75C223.07692307692307,-71.04166666666667,238.46153846153845,75.29166666666667,276.9230769230769,78C315.38461538461536,80.70833333333333,330.7692307692308,-75.54166666666667,369.2307692307692,-62C407.6923076923077,-48.45833333333333,423.0769230769231,153.20833333333334,461.53846153846155,143C500,132.79166666666666,515.3846153846154,-93.08333333333333,553.8461538461538,-111C592.3076923076923,-128.91666666666666,607.6923076923077,58.666666666666664,646.1538461538462,57C684.6153846153846,55.333333333333336,700,-134.83333333333334,738.4615384615385,-119C776.9230769230769,-103.16666666666667,792.3076923076923,128.625,830.7692307692307,133C869.2307692307692,137.375,884.6153846153846,-107.79166666666667,923.0769230769231,-98C961.5384615384615,-88.20833333333333,976.9230769230769,179.16666666666666,1015.3846153846154,180C1053.8461538461538,180.83333333333334,1069.230769230769,-65.66666666666666,1107.6923076923076,-94C1146.1538461538462,-122.33333333333334,1161.5384615384614,35.666666666666664,1200,44C1238.4615384615386,52.333333333333336,1253.846153846154,-72.33333333333333,1292.3076923076924,-54C1330.7692307692307,-35.66666666666667,1346.1538461538462,146.58333333333334,1384.6153846153845,132C1423.0769230769229,117.41666666666667,1438.4615384615383,-107.75,1476.923076923077,-124C1515.3846153846155,-140.25,1530.769230769231,53.583333333333336,1569.2307692307693,54C1607.6923076923076,54.416666666666664,1623.076923076923,-149.5,1661.5384615384614,-122C1699.9999999999998,-94.5,1715.3846153846152,172.45833333333334,1753.8461538461538,186C1792.3076923076924,199.54166666666666,1807.6923076923078,-36.583333333333336,1846.1538461538462,-57C1884.6153846153845,-77.41666666666666,1900,73.20833333333333,1938.4615384615383,88C1976.9230769230767,102.79166666666667,1992.3076923076924,-9.333333333333336,2030.7692307692307,14C2069.230769230769,37.333333333333336,2084.6153846153843,208.125,2123.076923076923,200C2161.5384615384614,191.875,2176.9230769230767,-4.166666666666664,2215.3846153846152,-25C2253.846153846154,-45.833333333333336,2269.230769230769,117.29166666666667,2307.6923076923076,100C2346.153846153846,82.70833333333333,2328.6858974358975,-170.5,2400,-108C2471.3141025641025,-45.5,3254.1666666666665,190,2650,400C2045.8333333333335,610,156.25,795.8333333333334,-500,900" transform="matrix(1,0,0,1,0,492)" opacity="0.23"></path><path d="M-10,10C11.314102564102562,20.208333333333332,51.76282051282051,76.70833333333333,92.3076923076923,59C132.8525641025641,41.29166666666667,146.15384615384616,-78.95833333333333,184.6153846153846,-75C223.07692307692307,-71.04166666666667,238.46153846153845,75.29166666666667,276.9230769230769,78C315.38461538461536,80.70833333333333,330.7692307692308,-75.54166666666667,369.2307692307692,-62C407.6923076923077,-48.45833333333333,423.0769230769231,153.20833333333334,461.53846153846155,143C500,132.79166666666666,515.3846153846154,-93.08333333333333,553.8461538461538,-111C592.3076923076923,-128.91666666666666,607.6923076923077,58.666666666666664,646.1538461538462,57C684.6153846153846,55.333333333333336,700,-134.83333333333334,738.4615384615385,-119C776.9230769230769,-103.16666666666667,792.3076923076923,128.625,830.7692307692307,133C869.2307692307692,137.375,884.6153846153846,-107.79166666666667,923.0769230769231,-98C961.5384615384615,-88.20833333333333,976.9230769230769,179.16666666666666,1015.3846153846154,180C1053.8461538461538,180.83333333333334,1069.230769230769,-65.66666666666666,1107.6923076923076,-94C1146.1538461538462,-122.33333333333334,1161.5384615384614,35.666666666666664,1200,44C1238.4615384615386,52.333333333333336,1253.846153846154,-72.33333333333333,1292.3076923076924,-54C1330.7692307692307,-35.66666666666667,1346.1538461538462,146.58333333333334,1384.6153846153845,132C1423.0769230769229,117.41666666666667,1438.4615384615383,-107.75,1476.923076923077,-124C1515.3846153846155,-140.25,1530.769230769231,53.583333333333336,1569.2307692307693,54C1607.6923076923076,54.416666666666664,1623.076923076923,-149.5,1661.5384615384614,-122C1699.9999999999998,-94.5,1715.3846153846152,172.45833333333334,1753.8461538461538,186C1792.3076923076924,199.54166666666666,1807.6923076923078,-36.583333333333336,1846.1538461538462,-57C1884.6153846153845,-77.41666666666666,1900,73.20833333333333,1938.4615384615383,88C1976.9230769230767,102.79166666666667,1992.3076923076924,-9.333333333333336,2030.7692307692307,14C2069.230769230769,37.333333333333336,2084.6153846153843,208.125,2123.076923076923,200C2161.5384615384614,191.875,2176.9230769230767,-4.166666666666664,2215.3846153846152,-25C2253.846153846154,-45.833333333333336,2269.230769230769,117.29166666666667,2307.6923076923076,100C2346.153846153846,82.70833333333333,2328.6858974358975,-170.5,2400,-108C2471.3141025641025,-45.5,3254.1666666666665,190,2650,400C2045.8333333333335,610,156.25,795.8333333333334,-500,900" transform="matrix(1,0,0,1,0,615)" opacity="0.29"></path><path d="M-10,10C11.314102564102562,20.208333333333332,51.76282051282051,76.70833333333333,92.3076923076923,59C132.8525641025641,41.29166666666667,146.15384615384616,-78.95833333333333,184.6153846153846,-75C223.07692307692307,-71.04166666666667,238.46153846153845,75.29166666666667,276.9230769230769,78C315.38461538461536,80.70833333333333,330.7692307692308,-75.54166666666667,369.2307692307692,-62C407.6923076923077,-48.45833333333333,423.0769230769231,153.20833333333334,461.53846153846155,143C500,132.79166666666666,515.3846153846154,-93.08333333333333,553.8461538461538,-111C592.3076923076923,-128.91666666666666,607.6923076923077,58.666666666666664,646.1538461538462,57C684.6153846153846,55.333333333333336,700,-134.83333333333334,738.4615384615385,-119C776.9230769230769,-103.16666666666667,792.3076923076923,128.625,830.7692307692307,133C869.2307692307692,137.375,884.6153846153846,-107.79166666666667,923.0769230769231,-98C961.5384615384615,-88.20833333333333,976.9230769230769,179.16666666666666,1015.3846153846154,180C1053.8461538461538,180.83333333333334,1069.230769230769,-65.66666666666666,1107.6923076923076,-94C1146.1538461538462,-122.33333333333334,1161.5384615384614,35.666666666666664,1200,44C1238.4615384615386,52.333333333333336,1253.846153846154,-72.33333333333333,1292.3076923076924,-54C1330.7692307692307,-35.66666666666667,1346.1538461538462,146.58333333333334,1384.6153846153845,132C1423.0769230769229,117.41666666666667,1438.4615384615383,-107.75,1476.923076923077,-124C1515.3846153846155,-140.25,1530.769230769231,53.583333333333336,1569.2307692307693,54C1607.6923076923076,54.416666666666664,1623.076923076923,-149.5,1661.5384615384614,-122C1699.9999999999998,-94.5,1715.3846153846152,172.45833333333334,1753.8461538461538,186C1792.3076923076924,199.54166666666666,1807.6923076923078,-36.583333333333336,1846.1538461538462,-57C1884.6153846153845,-77.41666666666666,1900,73.20833333333333,1938.4615384615383,88C1976.9230769230767,102.79166666666667,1992.3076923076924,-9.333333333333336,2030.7692307692307,14C2069.230769230769,37.333333333333336,2084.6153846153843,208.125,2123.076923076923,200C2161.5384615384614,191.875,2176.9230769230767,-4.166666666666664,2215.3846153846152,-25C2253.846153846154,-45.833333333333336,2269.230769230769,117.29166666666667,2307.6923076923076,100C2346.153846153846,82.70833333333333,2328.6858974358975,-170.5,2400,-108C2471.3141025641025,-45.5,3254.1666666666665,190,2650,400C2045.8333333333335,610,156.25,795.8333333333334,-500,900" transform="matrix(1,0,0,1,0,738)" opacity="0.35"></path><path d="M-10,10C11.314102564102562,20.208333333333332,51.76282051282051,76.70833333333333,92.3076923076923,59C132.8525641025641,41.29166666666667,146.15384615384616,-78.95833333333333,184.6153846153846,-75C223.07692307692307,-71.04166666666667,238.46153846153845,75.29166666666667,276.9230769230769,78C315.38461538461536,80.70833333333333,330.7692307692308,-75.54166666666667,369.2307692307692,-62C407.6923076923077,-48.45833333333333,423.0769230769231,153.20833333333334,461.53846153846155,143C500,132.79166666666666,515.3846153846154,-93.08333333333333,553.8461538461538,-111C592.3076923076923,-128.91666666666666,607.6923076923077,58.666666666666664,646.1538461538462,57C684.6153846153846,55.333333333333336,700,-134.83333333333334,738.4615384615385,-119C776.9230769230769,-103.16666666666667,792.3076923076923,128.625,830.7692307692307,133C869.2307692307692,137.375,884.6153846153846,-107.79166666666667,923.0769230769231,-98C961.5384615384615,-88.20833333333333,976.9230769230769,179.16666666666666,1015.3846153846154,180C1053.8461538461538,180.83333333333334,1069.230769230769,-65.66666666666666,1107.6923076923076,-94C1146.1538461538462,-122.33333333333334,1161.5384615384614,35.666666666666664,1200,44C1238.4615384615386,52.333333333333336,1253.846153846154,-72.33333333333333,1292.3076923076924,-54C1330.7692307692307,-35.66666666666667,1346.1538461538462,146.58333333333334,1384.6153846153845,132C1423.0769230769229,117.41666666666667,1438.4615384615383,-107.75,1476.923076923077,-124C1515.3846153846155,-140.25,1530.769230769231,53.583333333333336,1569.2307692307693,54C1607.6923076923076,54.416666666666664,1623.076923076923,-149.5,1661.5384615384614,-122C1699.9999999999998,-94.5,1715.3846153846152,172.45833333333334,1753.8461538461538,186C1792.3076923076924,199.54166666666666,1807.6923076923078,-36.583333333333336,1846.1538461538462,-57C1884.6153846153845,-77.41666666666666,1900,73.20833333333333,1938.4615384615383,88C1976.9230769230767,102.79166666666667,1992.3076923076924,-9.333333333333336,2030.7692307692307,14C2069.230769230769,37.333333333333336,2084.6153846153843,208.125,2123.076923076923,200C2161.5384615384614,191.875,2176.9230769230767,-4.166666666666664,2215.3846153846152,-25C2253.846153846154,-45.833333333333336,2269.230769230769,117.29166666666667,2307.6923076923076,100C2346.153846153846,82.70833333333333,2328.6858974358975,-170.5,2400,-108C2471.3141025641025,-45.5,3254.1666666666665,190,2650,400C2045.8333333333335,610,156.25,795.8333333333334,-500,900" transform="matrix(1,0,0,1,0,861)" opacity="0.41"></path><path d="M-10,10C11.314102564102562,20.208333333333332,51.76282051282051,76.70833333333333,92.3076923076923,59C132.8525641025641,41.29166666666667,146.15384615384616,-78.95833333333333,184.6153846153846,-75C223.07692307692307,-71.04166666666667,238.46153846153845,75.29166666666667,276.9230769230769,78C315.38461538461536,80.70833333333333,330.7692307692308,-75.54166666666667,369.2307692307692,-62C407.6923076923077,-48.45833333333333,423.0769230769231,153.20833333333334,461.53846153846155,143C500,132.79166666666666,515.3846153846154,-93.08333333333333,553.8461538461538,-111C592.3076923076923,-128.91666666666666,607.6923076923077,58.666666666666664,646.1538461538462,57C684.6153846153846,55.333333333333336,700,-134.83333333333334,738.4615384615385,-119C776.9230769230769,-103.16666666666667,792.3076923076923,128.625,830.7692307692307,133C869.2307692307692,137.375,884.6153846153846,-107.79166666666667,923.0769230769231,-98C961.5384615384615,-88.20833333333333,976.9230769230769,179.16666666666666,1015.3846153846154,180C1053.8461538461538,180.83333333333334,1069.230769230769,-65.66666666666666,1107.6923076923076,-94C1146.1538461538462,-122.33333333333334,1161.5384615384614,35.666666666666664,1200,44C1238.4615384615386,52.333333333333336,1253.846153846154,-72.33333333333333,1292.3076923076924,-54C1330.7692307692307,-35.66666666666667,1346.1538461538462,146.58333333333334,1384.6153846153845,132C1423.0769230769229,117.41666666666667,1438.4615384615383,-107.75,1476.923076923077,-124C1515.3846153846155,-140.25,1530.769230769231,53.583333333333336,1569.2307692307693,54C1607.6923076923076,54.416666666666664,1623.076923076923,-149.5,1661.5384615384614,-122C1699.9999999999998,-94.5,1715.3846153846152,172.45833333333334,1753.8461538461538,186C1792.3076923076924,199.54166666666666,1807.6923076923078,-36.583333333333336,1846.1538461538462,-57C1884.6153846153845,-77.41666666666666,1900,73.20833333333333,1938.4615384615383,88C1976.9230769230767,102.79166666666667,1992.3076923076924,-9.333333333333336,2030.7692307692307,14C2069.230769230769,37.333333333333336,2084.6153846153843,208.125,2123.076923076923,200C2161.5384615384614,191.875,2176.9230769230767,-4.166666666666664,2215.3846153846152,-25C2253.846153846154,-45.833333333333336,2269.230769230769,117.29166666666667,2307.6923076923076,100C2346.153846153846,82.70833333333333,2328.6858974358975,-170.5,2400,-108C2471.3141025641025,-45.5,3254.1666666666665,190,2650,400C2045.8333333333335,610,156.25,795.8333333333334,-500,900" transform="matrix(1,0,0,1,0,984)" opacity="0.47"></path><path d="M-10,10C11.314102564102562,20.208333333333332,51.76282051282051,76.70833333333333,92.3076923076923,59C132.8525641025641,41.29166666666667,146.15384615384616,-78.95833333333333,184.6153846153846,-75C223.07692307692307,-71.04166666666667,238.46153846153845,75.29166666666667,276.9230769230769,78C315.38461538461536,80.70833333333333,330.7692307692308,-75.54166666666667,369.2307692307692,-62C407.6923076923077,-48.45833333333333,423.0769230769231,153.20833333333334,461.53846153846155,143C500,132.79166666666666,515.3846153846154,-93.08333333333333,553.8461538461538,-111C592.3076923076923,-128.91666666666666,607.6923076923077,58.666666666666664,646.1538461538462,57C684.6153846153846,55.333333333333336,700,-134.83333333333334,738.4615384615385,-119C776.9230769230769,-103.16666666666667,792.3076923076923,128.625,830.7692307692307,133C869.2307692307692,137.375,884.6153846153846,-107.79166666666667,923.0769230769231,-98C961.5384615384615,-88.20833333333333,976.9230769230769,179.16666666666666,1015.3846153846154,180C1053.8461538461538,180.83333333333334,1069.230769230769,-65.66666666666666,1107.6923076923076,-94C1146.1538461538462,-122.33333333333334,1161.5384615384614,35.666666666666664,1200,44C1238.4615384615386,52.333333333333336,1253.846153846154,-72.33333333333333,1292.3076923076924,-54C1330.7692307692307,-35.66666666666667,1346.1538461538462,146.58333333333334,1384.6153846153845,132C1423.0769230769229,117.41666666666667,1438.4615384615383,-107.75,1476.923076923077,-124C1515.3846153846155,-140.25,1530.769230769231,53.583333333333336,1569.2307692307693,54C1607.6923076923076,54.416666666666664,1623.076923076923,-149.5,1661.5384615384614,-122C1699.9999999999998,-94.5,1715.3846153846152,172.45833333333334,1753.8461538461538,186C1792.3076923076924,199.54166666666666,1807.6923076923078,-36.583333333333336,1846.1538461538462,-57C1884.6153846153845,-77.41666666666666,1900,73.20833333333333,1938.4615384615383,88C1976.9230769230767,102.79166666666667,1992.3076923076924,-9.333333333333336,2030.7692307692307,14C2069.230769230769,37.333333333333336,2084.6153846153843,208.125,2123.076923076923,200C2161.5384615384614,191.875,2176.9230769230767,-4.166666666666664,2215.3846153846152,-25C2253.846153846154,-45.833333333333336,2269.230769230769,117.29166666666667,2307.6923076923076,100C2346.153846153846,82.70833333333333,2328.6858974358975,-170.5,2400,-108C2471.3141025641025,-45.5,3254.1666666666665,190,2650,400C2045.8333333333335,610,156.25,795.8333333333334,-500,900" transform="matrix(1,0,0,1,0,1107)" opacity="0.53"></path><path d="M-10,10C11.314102564102562,20.208333333333332,51.76282051282051,76.70833333333333,92.3076923076923,59C132.8525641025641,41.29166666666667,146.15384615384616,-78.95833333333333,184.6153846153846,-75C223.07692307692307,-71.04166666666667,238.46153846153845,75.29166666666667,276.9230769230769,78C315.38461538461536,80.70833333333333,330.7692307692308,-75.54166666666667,369.2307692307692,-62C407.6923076923077,-48.45833333333333,423.0769230769231,153.20833333333334,461.53846153846155,143C500,132.79166666666666,515.3846153846154,-93.08333333333333,553.8461538461538,-111C592.3076923076923,-128.91666666666666,607.6923076923077,58.666666666666664,646.1538461538462,57C684.6153846153846,55.333333333333336,700,-134.83333333333334,738.4615384615385,-119C776.9230769230769,-103.16666666666667,792.3076923076923,128.625,830.7692307692307,133C869.2307692307692,137.375,884.6153846153846,-107.79166666666667,923.0769230769231,-98C961.5384615384615,-88.20833333333333,976.9230769230769,179.16666666666666,1015.3846153846154,180C1053.8461538461538,180.83333333333334,1069.230769230769,-65.66666666666666,1107.6923076923076,-94C1146.1538461538462,-122.33333333333334,1161.5384615384614,35.666666666666664,1200,44C1238.4615384615386,52.333333333333336,1253.846153846154,-72.33333333333333,1292.3076923076924,-54C1330.7692307692307,-35.66666666666667,1346.1538461538462,146.58333333333334,1384.6153846153845,132C1423.0769230769229,117.41666666666667,1438.4615384615383,-107.75,1476.923076923077,-124C1515.3846153846155,-140.25,1530.769230769231,53.583333333333336,1569.2307692307693,54C1607.6923076923076,54.416666666666664,1623.076923076923,-149.5,1661.5384615384614,-122C1699.9999999999998,-94.5,1715.3846153846152,172.45833333333334,1753.8461538461538,186C1792.3076923076924,199.54166666666666,1807.6923076923078,-36.583333333333336,1846.1538461538462,-57C1884.6153846153845,-77.41666666666666,1900,73.20833333333333,1938.4615384615383,88C1976.9230769230767,102.79166666666667,1992.3076923076924,-9.333333333333336,2030.7692307692307,14C2069.230769230769,37.333333333333336,2084.6153846153843,208.125,2123.076923076923,200C2161.5384615384614,191.875,2176.9230769230767,-4.166666666666664,2215.3846153846152,-25C2253.846153846154,-45.833333333333336,2269.230769230769,117.29166666666667,2307.6923076923076,100C2346.153846153846,82.70833333333333,2328.6858974358975,-170.5,2400,-108C2471.3141025641025,-45.5,3254.1666666666665,190,2650,400C2045.8333333333335,610,156.25,795.8333333333334,-500,900" transform="matrix(1,0,0,1,0,1230)" opacity="0.58"></path><path d="M-10,10C11.314102564102562,20.208333333333332,51.76282051282051,76.70833333333333,92.3076923076923,59C132.8525641025641,41.29166666666667,146.15384615384616,-78.95833333333333,184.6153846153846,-75C223.07692307692307,-71.04166666666667,238.46153846153845,75.29166666666667,276.9230769230769,78C315.38461538461536,80.70833333333333,330.7692307692308,-75.54166666666667,369.2307692307692,-62C407.6923076923077,-48.45833333333333,423.0769230769231,153.20833333333334,461.53846153846155,143C500,132.79166666666666,515.3846153846154,-93.08333333333333,553.8461538461538,-111C592.3076923076923,-128.91666666666666,607.6923076923077,58.666666666666664,646.1538461538462,57C684.6153846153846,55.333333333333336,700,-134.83333333333334,738.4615384615385,-119C776.9230769230769,-103.16666666666667,792.3076923076923,128.625,830.7692307692307,133C869.2307692307692,137.375,884.6153846153846,-107.79166666666667,923.0769230769231,-98C961.5384615384615,-88.20833333333333,976.9230769230769,179.16666666666666,1015.3846153846154,180C1053.8461538461538,180.83333333333334,1069.230769230769,-65.66666666666666,1107.6923076923076,-94C1146.1538461538462,-122.33333333333334,1161.5384615384614,35.666666666666664,1200,44C1238.4615384615386,52.333333333333336,1253.846153846154,-72.33333333333333,1292.3076923076924,-54C1330.7692307692307,-35.66666666666667,1346.1538461538462,146.58333333333334,1384.6153846153845,132C1423.0769230769229,117.41666666666667,1438.4615384615383,-107.75,1476.923076923077,-124C1515.3846153846155,-140.25,1530.769230769231,53.583333333333336,1569.2307692307693,54C1607.6923076923076,54.416666666666664,1623.076923076923,-149.5,1661.5384615384614,-122C1699.9999999999998,-94.5,1715.3846153846152,172.45833333333334,1753.8461538461538,186C1792.3076923076924,199.54166666666666,1807.6923076923078,-36.583333333333336,1846.1538461538462,-57C1884.6153846153845,-77.41666666666666,1900,73.20833333333333,1938.4615384615383,88C1976.9230769230767,102.79166666666667,1992.3076923076924,-9.333333333333336,2030.7692307692307,14C2069.230769230769,37.333333333333336,2084.6153846153843,208.125,2123.076923076923,200C2161.5384615384614,191.875,2176.9230769230767,-4.166666666666664,2215.3846153846152,-25C2253.846153846154,-45.833333333333336,2269.230769230769,117.29166666666667,2307.6923076923076,100C2346.153846153846,82.70833333333333,2328.6858974358975,-170.5,2400,-108C2471.3141025641025,-45.5,3254.1666666666665,190,2650,400C2045.8333333333335,610,156.25,795.8333333333334,-500,900" transform="matrix(1,0,0,1,0,1353)" opacity="0.64"></path><path d="M-10,10C11.314102564102562,20.208333333333332,51.76282051282051,76.70833333333333,92.3076923076923,59C132.8525641025641,41.29166666666667,146.15384615384616,-78.95833333333333,184.6153846153846,-75C223.07692307692307,-71.04166666666667,238.46153846153845,75.29166666666667,276.9230769230769,78C315.38461538461536,80.70833333333333,330.7692307692308,-75.54166666666667,369.2307692307692,-62C407.6923076923077,-48.45833333333333,423.0769230769231,153.20833333333334,461.53846153846155,143C500,132.79166666666666,515.3846153846154,-93.08333333333333,553.8461538461538,-111C592.3076923076923,-128.91666666666666,607.6923076923077,58.666666666666664,646.1538461538462,57C684.6153846153846,55.333333333333336,700,-134.83333333333334,738.4615384615385,-119C776.9230769230769,-103.16666666666667,792.3076923076923,128.625,830.7692307692307,133C869.2307692307692,137.375,884.6153846153846,-107.79166666666667,923.0769230769231,-98C961.5384615384615,-88.20833333333333,976.9230769230769,179.16666666666666,1015.3846153846154,180C1053.8461538461538,180.83333333333334,1069.230769230769,-65.66666666666666,1107.6923076923076,-94C1146.1538461538462,-122.33333333333334,1161.5384615384614,35.666666666666664,1200,44C1238.4615384615386,52.333333333333336,1253.846153846154,-72.33333333333333,1292.3076923076924,-54C1330.7692307692307,-35.66666666666667,1346.1538461538462,146.58333333333334,1384.6153846153845,132C1423.0769230769229,117.41666666666667,1438.4615384615383,-107.75,1476.923076923077,-124C1515.3846153846155,-140.25,1530.769230769231,53.583333333333336,1569.2307692307693,54C1607.6923076923076,54.416666666666664,1623.076923076923,-149.5,1661.5384615384614,-122C1699.9999999999998,-94.5,1715.3846153846152,172.45833333333334,1753.8461538461538,186C1792.3076923076924,199.54166666666666,1807.6923076923078,-36.583333333333336,1846.1538461538462,-57C1884.6153846153845,-77.41666666666666,1900,73.20833333333333,1938.4615384615383,88C1976.9230769230767,102.79166666666667,1992.3076923076924,-9.333333333333336,2030.7692307692307,14C2069.230769230769,37.333333333333336,2084.6153846153843,208.125,2123.076923076923,200C2161.5384615384614,191.875,2176.9230769230767,-4.166666666666664,2215.3846153846152,-25C2253.846153846154,-45.833333333333336,2269.230769230769,117.29166666666667,2307.6923076923076,100C2346.153846153846,82.70833333333333,2328.6858974358975,-170.5,2400,-108C2471.3141025641025,-45.5,3254.1666666666665,190,2650,400C2045.8333333333335,610,156.25,795.8333333333334,-500,900" transform="matrix(1,0,0,1,0,1476)" opacity="0.70"></path><path d="M-10,10C11.314102564102562,20.208333333333332,51.76282051282051,76.70833333333333,92.3076923076923,59C132.8525641025641,41.29166666666667,146.15384615384616,-78.95833333333333,184.6153846153846,-75C223.07692307692307,-71.04166666666667,238.46153846153845,75.29166666666667,276.9230769230769,78C315.38461538461536,80.70833333333333,330.7692307692308,-75.54166666666667,369.2307692307692,-62C407.6923076923077,-48.45833333333333,423.0769230769231,153.20833333333334,461.53846153846155,143C500,132.79166666666666,515.3846153846154,-93.08333333333333,553.8461538461538,-111C592.3076923076923,-128.91666666666666,607.6923076923077,58.666666666666664,646.1538461538462,57C684.6153846153846,55.333333333333336,700,-134.83333333333334,738.4615384615385,-119C776.9230769230769,-103.16666666666667,792.3076923076923,128.625,830.7692307692307,133C869.2307692307692,137.375,884.6153846153846,-107.79166666666667,923.0769230769231,-98C961.5384615384615,-88.20833333333333,976.9230769230769,179.16666666666666,1015.3846153846154,180C1053.8461538461538,180.83333333333334,1069.230769230769,-65.66666666666666,1107.6923076923076,-94C1146.1538461538462,-122.33333333333334,1161.5384615384614,35.666666666666664,1200,44C1238.4615384615386,52.333333333333336,1253.846153846154,-72.33333333333333,1292.3076923076924,-54C1330.7692307692307,-35.66666666666667,1346.1538461538462,146.58333333333334,1384.6153846153845,132C1423.0769230769229,117.41666666666667,1438.4615384615383,-107.75,1476.923076923077,-124C1515.3846153846155,-140.25,1530.769230769231,53.583333333333336,1569.2307692307693,54C1607.6923076923076,54.416666666666664,1623.076923076923,-149.5,1661.5384615384614,-122C1699.9999999999998,-94.5,1715.3846153846152,172.45833333333334,1753.8461538461538,186C1792.3076923076924,199.54166666666666,1807.6923076923078,-36.583333333333336,1846.1538461538462,-57C1884.6153846153845,-77.41666666666666,1900,73.20833333333333,1938.4615384615383,88C1976.9230769230767,102.79166666666667,1992.3076923076924,-9.333333333333336,2030.7692307692307,14C2069.230769230769,37.333333333333336,2084.6153846153843,208.125,2123.076923076923,200C2161.5384615384614,191.875,2176.9230769230767,-4.166666666666664,2215.3846153846152,-25C2253.846153846154,-45.833333333333336,2269.230769230769,117.29166666666667,2307.6923076923076,100C2346.153846153846,82.70833333333333,2328.6858974358975,-170.5,2400,-108C2471.3141025641025,-45.5,3254.1666666666665,190,2650,400C2045.8333333333335,610,156.25,795.8333333333334,-500,900" transform="matrix(1,0,0,1,0,1599)" opacity="0.76"></path><path d="M-10,10C11.314102564102562,20.208333333333332,51.76282051282051,76.70833333333333,92.3076923076923,59C132.8525641025641,41.29166666666667,146.15384615384616,-78.95833333333333,184.6153846153846,-75C223.07692307692307,-71.04166666666667,238.46153846153845,75.29166666666667,276.9230769230769,78C315.38461538461536,80.70833333333333,330.7692307692308,-75.54166666666667,369.2307692307692,-62C407.6923076923077,-48.45833333333333,423.0769230769231,153.20833333333334,461.53846153846155,143C500,132.79166666666666,515.3846153846154,-93.08333333333333,553.8461538461538,-111C592.3076923076923,-128.91666666666666,607.6923076923077,58.666666666666664,646.1538461538462,57C684.6153846153846,55.333333333333336,700,-134.83333333333334,738.4615384615385,-119C776.9230769230769,-103.16666666666667,792.3076923076923,128.625,830.7692307692307,133C869.2307692307692,137.375,884.6153846153846,-107.79166666666667,923.0769230769231,-98C961.5384615384615,-88.20833333333333,976.9230769230769,179.16666666666666,1015.3846153846154,180C1053.8461538461538,180.83333333333334,1069.230769230769,-65.66666666666666,1107.6923076923076,-94C1146.1538461538462,-122.33333333333334,1161.5384615384614,35.666666666666664,1200,44C1238.4615384615386,52.333333333333336,1253.846153846154,-72.33333333333333,1292.3076923076924,-54C1330.7692307692307,-35.66666666666667,1346.1538461538462,146.58333333333334,1384.6153846153845,132C1423.0769230769229,117.41666666666667,1438.4615384615383,-107.75,1476.923076923077,-124C1515.3846153846155,-140.25,1530.769230769231,53.583333333333336,1569.2307692307693,54C1607.6923076923076,54.416666666666664,1623.076923076923,-149.5,1661.5384615384614,-122C1699.9999999999998,-94.5,1715.3846153846152,172.45833333333334,1753.8461538461538,186C1792.3076923076924,199.54166666666666,1807.6923076923078,-36.583333333333336,1846.1538461538462,-57C1884.6153846153845,-77.41666666666666,1900,73.20833333333333,1938.4615384615383,88C1976.9230769230767,102.79166666666667,1992.3076923076924,-9.333333333333336,2030.7692307692307,14C2069.230769230769,37.333333333333336,2084.6153846153843,208.125,2123.076923076923,200C2161.5384615384614,191.875,2176.9230769230767,-4.166666666666664,2215.3846153846152,-25C2253.846153846154,-45.833333333333336,2269.230769230769,117.29166666666667,2307.6923076923076,100C2346.153846153846,82.70833333333333,2328.6858974358975,-170.5,2400,-108C2471.3141025641025,-45.5,3254.1666666666665,190,2650,400C2045.8333333333335,610,156.25,795.8333333333334,-500,900" transform="matrix(1,0,0,1,0,1722)" opacity="0.82"></path><path d="M-10,10C11.314102564102562,20.208333333333332,51.76282051282051,76.70833333333333,92.3076923076923,59C132.8525641025641,41.29166666666667,146.15384615384616,-78.95833333333333,184.6153846153846,-75C223.07692307692307,-71.04166666666667,238.46153846153845,75.29166666666667,276.9230769230769,78C315.38461538461536,80.70833333333333,330.7692307692308,-75.54166666666667,369.2307692307692,-62C407.6923076923077,-48.45833333333333,423.0769230769231,153.20833333333334,461.53846153846155,143C500,132.79166666666666,515.3846153846154,-93.08333333333333,553.8461538461538,-111C592.3076923076923,-128.91666666666666,607.6923076923077,58.666666666666664,646.1538461538462,57C684.6153846153846,55.333333333333336,700,-134.83333333333334,738.4615384615385,-119C776.9230769230769,-103.16666666666667,792.3076923076923,128.625,830.7692307692307,133C869.2307692307692,137.375,884.6153846153846,-107.79166666666667,923.0769230769231,-98C961.5384615384615,-88.20833333333333,976.9230769230769,179.16666666666666,1015.3846153846154,180C1053.8461538461538,180.83333333333334,1069.230769230769,-65.66666666666666,1107.6923076923076,-94C1146.1538461538462,-122.33333333333334,1161.5384615384614,35.666666666666664,1200,44C1238.4615384615386,52.333333333333336,1253.846153846154,-72.33333333333333,1292.3076923076924,-54C1330.7692307692307,-35.66666666666667,1346.1538461538462,146.58333333333334,1384.6153846153845,132C1423.0769230769229,117.41666666666667,1438.4615384615383,-107.75,1476.923076923077,-124C1515.3846153846155,-140.25,1530.769230769231,53.583333333333336,1569.2307692307693,54C1607.6923076923076,54.416666666666664,1623.076923076923,-149.5,1661.5384615384614,-122C1699.9999999999998,-94.5,1715.3846153846152,172.45833333333334,1753.8461538461538,186C1792.3076923076924,199.54166666666666,1807.6923076923078,-36.583333333333336,1846.1538461538462,-57C1884.6153846153845,-77.41666666666666,1900,73.20833333333333,1938.4615384615383,88C1976.9230769230767,102.79166666666667,1992.3076923076924,-9.333333333333336,2030.7692307692307,14C2069.230769230769,37.333333333333336,2084.6153846153843,208.125,2123.076923076923,200C2161.5384615384614,191.875,2176.9230769230767,-4.166666666666664,2215.3846153846152,-25C2253.846153846154,-45.833333333333336,2269.230769230769,117.29166666666667,2307.6923076923076,100C2346.153846153846,82.70833333333333,2328.6858974358975,-170.5,2400,-108C2471.3141025641025,-45.5,3254.1666666666665,190,2650,400C2045.8333333333335,610,156.25,795.8333333333334,-500,900" transform="matrix(1,0,0,1,0,1845)" opacity="0.88"></path><path d="M-10,10C11.314102564102562,20.208333333333332,51.76282051282051,76.70833333333333,92.3076923076923,59C132.8525641025641,41.29166666666667,146.15384615384616,-78.95833333333333,184.6153846153846,-75C223.07692307692307,-71.04166666666667,238.46153846153845,75.29166666666667,276.9230769230769,78C315.38461538461536,80.70833333333333,330.7692307692308,-75.54166666666667,369.2307692307692,-62C407.6923076923077,-48.45833333333333,423.0769230769231,153.20833333333334,461.53846153846155,143C500,132.79166666666666,515.3846153846154,-93.08333333333333,553.8461538461538,-111C592.3076923076923,-128.91666666666666,607.6923076923077,58.666666666666664,646.1538461538462,57C684.6153846153846,55.333333333333336,700,-134.83333333333334,738.4615384615385,-119C776.9230769230769,-103.16666666666667,792.3076923076923,128.625,830.7692307692307,133C869.2307692307692,137.375,884.6153846153846,-107.79166666666667,923.0769230769231,-98C961.5384615384615,-88.20833333333333,976.9230769230769,179.16666666666666,1015.3846153846154,180C1053.8461538461538,180.83333333333334,1069.230769230769,-65.66666666666666,1107.6923076923076,-94C1146.1538461538462,-122.33333333333334,1161.5384615384614,35.666666666666664,1200,44C1238.4615384615386,52.333333333333336,1253.846153846154,-72.33333333333333,1292.3076923076924,-54C1330.7692307692307,-35.66666666666667,1346.1538461538462,146.58333333333334,1384.6153846153845,132C1423.0769230769229,117.41666666666667,1438.4615384615383,-107.75,1476.923076923077,-124C1515.3846153846155,-140.25,1530.769230769231,53.583333333333336,1569.2307692307693,54C1607.6923076923076,54.416666666666664,1623.076923076923,-149.5,1661.5384615384614,-122C1699.9999999999998,-94.5,1715.3846153846152,172.45833333333334,1753.8461538461538,186C1792.3076923076924,199.54166666666666,1807.6923076923078,-36.583333333333336,1846.1538461538462,-57C1884.6153846153845,-77.41666666666666,1900,73.20833333333333,1938.4615384615383,88C1976.9230769230767,102.79166666666667,1992.3076923076924,-9.333333333333336,2030.7692307692307,14C2069.230769230769,37.333333333333336,2084.6153846153843,208.125,2123.076923076923,200C2161.5384615384614,191.875,2176.9230769230767,-4.166666666666664,2215.3846153846152,-25C2253.846153846154,-45.833333333333336,2269.230769230769,117.29166666666667,2307.6923076923076,100C2346.153846153846,82.70833333333333,2328.6858974358975,-170.5,2400,-108C2471.3141025641025,-45.5,3254.1666666666665,190,2650,400C2045.8333333333335,610,156.25,795.8333333333334,-500,900" transform="matrix(1,0,0,1,0,1968)" opacity="0.94"></path><path d="M-10,10C11.314102564102562,20.208333333333332,51.76282051282051,76.70833333333333,92.3076923076923,59C132.8525641025641,41.29166666666667,146.15384615384616,-78.95833333333333,184.6153846153846,-75C223.07692307692307,-71.04166666666667,238.46153846153845,75.29166666666667,276.9230769230769,78C315.38461538461536,80.70833333333333,330.7692307692308,-75.54166666666667,369.2307692307692,-62C407.6923076923077,-48.45833333333333,423.0769230769231,153.20833333333334,461.53846153846155,143C500,132.79166666666666,515.3846153846154,-93.08333333333333,553.8461538461538,-111C592.3076923076923,-128.91666666666666,607.6923076923077,58.666666666666664,646.1538461538462,57C684.6153846153846,55.333333333333336,700,-134.83333333333334,738.4615384615385,-119C776.9230769230769,-103.16666666666667,792.3076923076923,128.625,830.7692307692307,133C869.2307692307692,137.375,884.6153846153846,-107.79166666666667,923.0769230769231,-98C961.5384615384615,-88.20833333333333,976.9230769230769,179.16666666666666,1015.3846153846154,180C1053.8461538461538,180.83333333333334,1069.230769230769,-65.66666666666666,1107.6923076923076,-94C1146.1538461538462,-122.33333333333334,1161.5384615384614,35.666666666666664,1200,44C1238.4615384615386,52.333333333333336,1253.846153846154,-72.33333333333333,1292.3076923076924,-54C1330.7692307692307,-35.66666666666667,1346.1538461538462,146.58333333333334,1384.6153846153845,132C1423.0769230769229,117.41666666666667,1438.4615384615383,-107.75,1476.923076923077,-124C1515.3846153846155,-140.25,1530.769230769231,53.583333333333336,1569.2307692307693,54C1607.6923076923076,54.416666666666664,1623.076923076923,-149.5,1661.5384615384614,-122C1699.9999999999998,-94.5,1715.3846153846152,172.45833333333334,1753.8461538461538,186C1792.3076923076924,199.54166666666666,1807.6923076923078,-36.583333333333336,1846.1538461538462,-57C1884.6153846153845,-77.41666666666666,1900,73.20833333333333,1938.4615384615383,88C1976.9230769230767,102.79166666666667,1992.3076923076924,-9.333333333333336,2030.7692307692307,14C2069.230769230769,37.333333333333336,2084.6153846153843,208.125,2123.076923076923,200C2161.5384615384614,191.875,2176.9230769230767,-4.166666666666664,2215.3846153846152,-25C2253.846153846154,-45.833333333333336,2269.230769230769,117.29166666666667,2307.6923076923076,100C2346.153846153846,82.70833333333333,2328.6858974358975,-170.5,2400,-108C2471.3141025641025,-45.5,3254.1666666666665,190,2650,400C2045.8333333333335,610,156.25,795.8333333333334,-500,900" transform="matrix(1,0,0,1,0,2091)" opacity="1.00"></path></g></svg>