<?xml version="1.0" encoding="UTF-8" standalone="no"?>
<!-- Uploaded to: SVG Repo, www.svgrepo.com, Generator: SVG Repo Mixer Tools -->

<svg
   width="9.8401699"
   height="8.2000504"
   viewBox="0 0 24.000414 20.000123"
   fill="none"
   version="1.1"
   id="svg1"
   sodipodi:docname="cat-svgrepo-com.svg"
   inkscape:version="1.3.2 (091e20e, 2023-11-25, custom)"
   xmlns:inkscape="http://www.inkscape.org/namespaces/inkscape"
   xmlns:sodipodi="http://sodipodi.sourceforge.net/DTD/sodipodi-0.dtd"
   xmlns="http://www.w3.org/2000/svg"
   xmlns:svg="http://www.w3.org/2000/svg">
  <defs
     id="defs1" />
  <sodipodi:namedview
     id="namedview1"
     pagecolor="#505050"
     bordercolor="#eeeeee"
     borderopacity="1"
     inkscape:showpageshadow="0"
     inkscape:pageopacity="0"
     inkscape:pagecheckerboard="0"
     inkscape:deskcolor="#d1d1d1"
     inkscape:lockguides="true"
     inkscape:zoom="97.36"
     inkscape:cx="7.4619967"
     inkscape:cy="4.6682416"
     inkscape:window-width="2400"
     inkscape:window-height="1494"
     inkscape:window-x="-11"
     inkscape:window-y="325"
     inkscape:window-maximized="1"
     inkscape:current-layer="svg1">
    <sodipodi:guide
       position="0,20.00012"
       orientation="0,9.8401699"
       inkscape:locked="true"
       id="guide1" />
    <sodipodi:guide
       position="24.000414,20.00012"
       orientation="8.2000494,0"
       inkscape:locked="true"
       id="guide2" />
    <sodipodi:guide
       position="24.000414,0"
       orientation="0,-9.8401699"
       inkscape:locked="true"
       id="guide3" />
    <sodipodi:guide
       position="0,0"
       orientation="-8.2000494,0"
       inkscape:locked="true"
       id="guide4" />
  </sodipodi:namedview>
  <path
     fill-rule="evenodd"
     clip-rule="evenodd"
     d="m 3.0369938,0.4952817 c 0.22525,-0.3852 0.67845,-0.57454 1.11079,-0.46407 1.82803,0.46708 3.40364,1.22061 4.88375,2.33421 0.93845,-0.30588 1.9358102,-0.4706 2.9687102,-0.4706 1.0328,0 2.0302,0.16472 2.9687,0.4706 1.4801,-1.1136 3.055699,-1.86713 4.883699,-2.33421 0.4324,-0.11047 0.8856,0.07887 1.1108,0.46407 0.6504,1.11219 0.7188,2.34991 0.5791,3.46102 -0.1181,0.93906 -0.3944,1.86019 -0.6662,2.65026 0.719,1.45096 1.1239,3.09836 1.1239,4.8408603 0,0.6323 -0.0535,1.2306 -0.1567,1.7947 l 0.930401,-0.2161 c 0.538,-0.125 1.0754,0.2098 1.2003,0.7478 0.125,0.538 -0.2098,1.0754 -0.7478,1.2003 l -2.128501,0.4945 c -0.3102,0.6035 -0.695,1.1481 -1.146,1.6329 l 0.6764,0.5998 c 0.4133,0.3665 0.4512,0.9985 0.0848,1.4117 -0.3664,0.4132 -0.9985,0.4512 -1.4117,0.0847 l -0.9126,-0.8092 c -1.780499,1.1215 -4.030599,1.6116 -6.388599,1.6116 -2.3580802,0 -4.6081302,-0.4901 -6.3886502,-1.6116 l -0.91263,0.8093 c -0.41322,0.3664 -1.04524,0.3284 -1.41167,-0.0848 -0.36642,-0.4132 -0.32849,-1.0452 0.08474,-1.4117 l 0.67643,-0.5998 c -0.45101,-0.4848 -0.83578,-1.0294 -1.14593,-1.6329 l -2.12858327,-0.4945 c -0.53796,-0.1249 -0.872758,-0.6623 -0.747792,-1.2003 0.124966,-0.538 0.662374,-0.8728 1.20033497,-0.7478 l 0.93044,0.2161 c -0.1032,-0.5641 -0.15671,-1.1624 -0.15671,-1.7947 0,-1.7425003 0.4049002,-3.3899003 1.1238703,-4.8408603 -0.27174,-0.79007 -0.54807,-1.7112 -0.6661401,-2.65026 -0.1397102,-1.11111 -0.07136,-2.34883 0.5790401,-3.46102 z m 16.6188492,13.2550403 -3.263299,0.758 c -0.3643,0.0847 -0.6509,0.3655 -0.7429,0.7281 -0.0921,0.3625 0.0259,0.7461 0.3057,0.9942 l 0.8544,0.7576 c -1.3007,0.6687 -2.9494,1.0119 -4.8095,1.0119 -1.8601,0 -3.5088802,-0.3432 -4.8095702,-1.0119 l 0.85436,-0.7576 c 0.27984,-0.2481 0.39782,-0.6317 0.30579,-0.9942 -0.09203,-0.3625 -0.37867,-0.6434 -0.74299,-0.728 l -3.26323,-0.7581 c -0.22275,-0.6704 -0.34438,-1.4347 -0.34438,-2.3029 0,-1.5651003 0.39739,-3.0266003 1.08746,-4.2811803 0.13813,-0.25112 0.16187,-0.54943 0.0652,-0.81924 -0.30732,-0.85776 -0.60052,-1.76504 -0.71056,-2.64021 -0.06961,-0.55359 -0.06048,-1.0534 0.04348,-1.49543 1.37381,0.45135 2.57436,1.116 3.73397,2.05782 0.28028,0.22763 0.66149,0.2865 0.99738,0.15401 0.8661902,-0.34165 1.8032902,-0.52837 2.7830902,-0.52837 0.9798,0 1.9169,0.18672 2.7831,0.52837 0.3358,0.13249 0.7171,0.07362 0.9973,-0.15401 1.1596,-0.94182 2.360199,-1.60647 3.733999,-2.05782 0.104,0.44203 0.1131,0.94184 0.0435,1.49543 -0.1101,0.87517 -0.4033,1.78245 -0.7106,2.64021 -0.0967,0.26981 -0.0729,0.56812 0.0652,0.81924 0.6901,1.25458 1.0875,2.71608 1.0875,4.2811803 0,0.8682 -0.1216,1.6325 -0.3444,2.3029 z m -3.655599,-2.2502 c 0.8284,0 1.499999,-0.6716 1.499999,-1.5 0,-0.8285003 -0.671599,-1.5000003 -1.499999,-1.5000003 -0.8284,0 -1.5,0.6715 -1.5,1.5000003 0,0.8284 0.6716,1.5 1.5,1.5 z m -7.8786802,0.1213 c 0.82842,0 1.5,-0.6716 1.5,-1.5 0,-0.8285003 -0.67158,-1.5000003 -1.5,-1.5000003 -0.82843,0 -1.5,0.6715 -1.5,1.5000003 0,0.8284 0.67157,1.5 1.5,1.5 z m 2.8786802,1.3787 c -0.4045,0 -0.7691,0.2436 -0.9239,0.6173 -0.1547802,0.3737 -0.0692,0.8038 0.2168,1.0898 l 1,1 c 0.3905,0.3905 1.0237,0.3905 1.4142,0 l 1,-1 c 0.286,-0.286 0.3715,-0.7161 0.2168,-1.0898 -0.1548,-0.3737 -0.5195,-0.6173 -0.9239,-0.6173 z"
     fill="#000000"
     id="path1" />
</svg>
