<?xml version="1.0" encoding="UTF-8" standalone="no"?>
<!-- Uploaded to: SVG Repo, www.svgrepo.com, Generator: SVG Repo Mixer Tools -->

<svg
   width="9.0450001"
   height="10.621"
   viewBox="0 0 13.5 15.852239"
   fill="none"
   version="1.1"
   id="svg1"
   sodipodi:docname="css-16-svgrepo-com.svg"
   inkscape:version="1.3.2 (091e20e, 2023-11-25, custom)"
   xmlns:inkscape="http://www.inkscape.org/namespaces/inkscape"
   xmlns:sodipodi="http://sodipodi.sourceforge.net/DTD/sodipodi-0.dtd"
   xmlns="http://www.w3.org/2000/svg"
   xmlns:svg="http://www.w3.org/2000/svg">
  <defs
     id="defs1" />
  <sodipodi:namedview
     id="namedview1"
     pagecolor="#505050"
     bordercolor="#eeeeee"
     borderopacity="1"
     inkscape:showpageshadow="0"
     inkscape:pageopacity="0"
     inkscape:pagecheckerboard="0"
     inkscape:deskcolor="#d1d1d1"
     inkscape:zoom="90.509668"
     inkscape:cx="3.3200873"
     inkscape:cy="2.3699126"
     inkscape:window-width="2880"
     inkscape:window-height="1514"
     inkscape:window-x="3589"
     inkscape:window-y="703"
     inkscape:window-maximized="1"
     inkscape:current-layer="svg1" />
  <path
     fill-rule="nonzero"
     clip-rule="nonzero"
     d="m 1.75,1.500004 c -0.13807,0 -0.25,0.11192 -0.25,0.25 v 9.55029 c 0,0.0893 0.04769,0.1719 0.12509,0.2165 l 4.85872,2.8026 c 0.07561,0.0436 0.1685,0.0446 0.24505,0.0027 l 5.14124,-2.8173 C 11.9502,11.460894 12,11.376894 12,11.285594 v -9.53559 c 0,-0.13808 -0.1119,-0.25 -0.25,-0.25 z M 0,1.750004 C 0,0.783502 0.7835,0 1.75,0 h 10 c 0.9665,0 1.75,0.783503 1.75,1.750004 v 9.53559 c 0,0.6392 -0.3485,1.2275 -0.909,1.5347 l -5.14132,2.8172 c -0.53585,0.2936 -1.18605,0.2865 -1.71534,-0.0188 l -4.85872,-2.8025 C 0.33382,12.503694 0,11.925794 0,11.300294 Z m 3.75,2.5 c 0,-0.41422 0.33579,-0.75 0.75,-0.75 h 4.6154 c 0.4142,0 0.75,0.33578 0.75,0.75 v 6.09619 c 0,0.284 -0.1605,0.5437 -0.4146,0.6708 l -2.3077,1.1538 c -0.21114,0.1056 -0.45967,0.1056 -0.67082,0 l -2.30769,-1.1538 C 3.9105,10.889894 3.75,10.630194 3.75,10.346194 v -0.57696 c 0,-0.41422 0.33579,-0.75 0.75,-0.75 0.41421,0 0.75,0.33578 0.75,0.75 v 0.11339 l 1.55769,0.77887 1.5577,-0.77887 V 8.211534 H 5.75 c -0.41421,0 -0.75,-0.33578 -0.75,-0.75 0,-0.41421 0.33579,-0.75 0.75,-0.75 H 8.36539 V 5.000004 H 4.5 c -0.41421,0 -0.75,-0.33579 -0.75,-0.75 z"
     fill="#000000"
     id="path1" />
</svg>
