<?xml version="1.0" encoding="UTF-8" standalone="no"?>
<!-- Uploaded to: SVG Repo, www.svgrepo.com, Generator: SVG Repo Mixer Tools -->

<svg
   width="12.29396"
   height="9.1203909"
   viewBox="0 0 21.56835 16.000686"
   fill="none"
   version="1.1"
   id="svg1"
   sodipodi:docname="gaming-pad-alt-1-svgrepo-com.svg"
   inkscape:version="1.3.2 (091e20e, 2023-11-25, custom)"
   xmlns:inkscape="http://www.inkscape.org/namespaces/inkscape"
   xmlns:sodipodi="http://sodipodi.sourceforge.net/DTD/sodipodi-0.dtd"
   xmlns="http://www.w3.org/2000/svg"
   xmlns:svg="http://www.w3.org/2000/svg">
  <defs
     id="defs1" />
  <sodipodi:namedview
     id="namedview1"
     pagecolor="#505050"
     bordercolor="#eeeeee"
     borderopacity="1"
     inkscape:showpageshadow="0"
     inkscape:pageopacity="0"
     inkscape:pagecheckerboard="0"
     inkscape:deskcolor="#d1d1d1"
     inkscape:zoom="68.843916"
     inkscape:cx="3.929178"
     inkscape:cy="0.95142757"
     inkscape:window-width="2400"
     inkscape:window-height="1494"
     inkscape:window-x="-11"
     inkscape:window-y="325"
     inkscape:window-maximized="1"
     inkscape:current-layer="svg1" />
  <path
     d="m 4.7841723,7.0006854 h 3.99996 m -1.99996,-2 v 4 m 6.9999597,-1 h 0.01 m 2.99,-2 h 0.01 m -7.5609997,-5 h 3.1020997 c 2.6249,0 3.9373,0 4.9675,0.49743 0.907,0.43797 1.6606,1.13966 2.1621,2.01316 0.5695,0.99211 0.663,2.30122 0.8501,4.91941 l 0.246,3.4444996 c 0.1206,1.6889 -1.217,3.1255 -2.9102,3.1255 -0.8659,0 -1.6871,-0.3846 -2.2414,-1.0498 l -0.3752,-0.4502 c -0.3431,-0.4118 -0.5147,-0.6177 -0.7101,-0.7841 -0.4095,-0.3487 -0.9054,-0.581 -1.4355,-0.6723 -0.2529,-0.0436 -0.5209,-0.0436 -1.0569,-0.0436 H 9.7367323 c -0.536,0 -0.804,0 -1.05693,0.0436 -0.53014,0.0913 -1.02596,0.3236 -1.43553,0.6723 -0.19537,0.1664 -0.36695,0.3723 -0.71011,0.7841 l -0.37516,0.4502 c -0.55433,0.6652 -1.37548,1.0498 -2.24138,1.0498 -1.69322,0 -3.03084007,-1.4366 -2.9102,-3.1255 l 0.24603,-3.4444996 c 0.18702,-2.61819 0.28052,-3.9273 0.85009,-4.91941 0.50147,-0.8735 1.25507,-1.57519 2.16208,-2.01316 1.03017,-0.49743 2.34261,-0.49743 4.96751,-0.49743 z"
     stroke="#000000"
     stroke-width="2"
     stroke-linecap="round"
     stroke-linejoin="round"
     id="path1" />
</svg>
