<?xml version="1.0" encoding="UTF-8" standalone="no"?>
<!-- Uploaded to: SVG Repo, www.svgrepo.com, Generator: SVG Repo Mixer Tools -->

<svg
   width="9.0450001"
   height="10.62137"
   viewBox="0 0 13.5 15.852791"
   fill="none"
   version="1.1"
   id="svg1"
   sodipodi:docname="html-16-svgrepo-com.svg"
   inkscape:version="1.3.2 (091e20e, 2023-11-25, custom)"
   xmlns:inkscape="http://www.inkscape.org/namespaces/inkscape"
   xmlns:sodipodi="http://sodipodi.sourceforge.net/DTD/sodipodi-0.dtd"
   xmlns="http://www.w3.org/2000/svg"
   xmlns:svg="http://www.w3.org/2000/svg">
  <defs
     id="defs1" />
  <sodipodi:namedview
     id="namedview1"
     pagecolor="#505050"
     bordercolor="#eeeeee"
     borderopacity="1"
     inkscape:showpageshadow="0"
     inkscape:pageopacity="0"
     inkscape:pagecheckerboard="0"
     inkscape:deskcolor="#d1d1d1"
     inkscape:zoom="34.421958"
     inkscape:cx="20.205126"
     inkscape:cy="15.150213"
     inkscape:window-width="2400"
     inkscape:window-height="1494"
     inkscape:window-x="-11"
     inkscape:window-y="325"
     inkscape:window-maximized="1"
     inkscape:current-layer="svg1" />
  <path
     fill-rule="nonzero"
     clip-rule="nonzero"
     d="M 1.75,1.5 C 1.61193,1.5 1.5,1.61193 1.5,1.75 v 9.5503 c 0,0.0893 0.04769,0.1719 0.12509,0.2165 l 4.85872,2.8026 c 0.07561,0.0436 0.1685,0.0446 0.24505,0.0027 L 11.8701,11.5048 C 11.9502,11.4609 12,11.3769 12,11.2856 V 1.75 C 12,1.61193 11.8881,1.5 11.75,1.5 Z M 0,1.75 C 0,0.783502 0.7835,0 1.75,0 h 10 c 0.9665,0 1.75,0.783503 1.75,1.75 v 9.5356 c 0,0.6392 -0.3485,1.2275 -0.909,1.5347 L 7.44968,15.6375 C 6.91383,15.9311 6.26363,15.924 5.73434,15.6187 L 0.87562,12.8162 C 0.33382,12.5037 0,11.9258 0,11.3003 Z m 3.75,2.5 C 3.75,3.83579 4.08579,3.5 4.5,3.5 h 4.6154 c 0.4142,0 0.75,0.33579 0.75,0.75 0,0.41421 -0.3358,0.75 -0.75,0.75 H 5.25 v 1.71154 h 3.8654 c 0.4142,0 0.75,0.33578 0.75,0.75 v 2.88466 c 0,0.284 -0.1605,0.5437 -0.4146,0.6708 l -2.3077,1.1538 c -0.21114,0.1056 -0.45967,0.1056 -0.67082,0 L 4.16459,11.017 C 3.9105,10.8899 3.75,10.6302 3.75,10.3462 V 9.76923 c 0,-0.41421 0.33579,-0.75 0.75,-0.75 0.41421,0 0.75,0.33579 0.75,0.75 v 0.1134 L 6.80769,10.6615 8.36539,9.88263 V 8.21154 H 4.5 c -0.41421,0 -0.75,-0.33579 -0.75,-0.75 z"
     fill="#000000"
     id="path1" />
</svg>
