<?xml version="1.0" encoding="UTF-8" standalone="no"?>
<!-- Uploaded to: SVG Repo, www.svgrepo.com, Generator: SVG Repo Mixer Tools -->

<svg
   width="9.75492"
   height="9.7437277"
   viewBox="0 0 15.484 15.466234"
   fill="none"
   version="1.1"
   id="svg1"
   sodipodi:docname="loading-16-svgrepo-com.svg"
   inkscape:version="1.3.2 (091e20e, 2023-11-25, custom)"
   xmlns:inkscape="http://www.inkscape.org/namespaces/inkscape"
   xmlns:sodipodi="http://sodipodi.sourceforge.net/DTD/sodipodi-0.dtd"
   xmlns="http://www.w3.org/2000/svg"
   xmlns:svg="http://www.w3.org/2000/svg">
  <defs
     id="defs1" />
  <sodipodi:namedview
     id="namedview1"
     pagecolor="#505050"
     bordercolor="#eeeeee"
     borderopacity="1"
     inkscape:showpageshadow="0"
     inkscape:pageopacity="0"
     inkscape:pagecheckerboard="0"
     inkscape:deskcolor="#d1d1d1"
     inkscape:zoom="97.36"
     inkscape:cx="6.7841003"
     inkscape:cy="6.0137634"
     inkscape:window-width="2400"
     inkscape:window-height="1494"
     inkscape:window-x="-11"
     inkscape:window-y="325"
     inkscape:window-maximized="1"
     inkscape:current-layer="svg1" />
  <path
     d="m 7.448,0.01523409 c -0.222,0.072 -0.35,0.2 -0.412,0.409 -0.035,0.117 -0.041,0.389 -0.041,1.80900001 0,1.881 -0.002,1.857 0.19,2.049 0.257,0.256 0.857,0.256 1.114,0 0.192,-0.192 0.19,-0.168 0.19,-2.049 0,-1.82000001 -0.003,-1.85200001 -0.151,-2.02800001 -0.124,-0.147 -0.257,-0.196 -0.556,-0.204 -0.147,-0.004 -0.297,0.002 -0.334,0.014 M 2.495,1.9912341 c -0.158,0.072 -0.391,0.3 -0.472,0.462 -0.084,0.169 -0.088,0.357 -0.012,0.525 0.074,0.165 2.398,2.497 2.581,2.59 0.259,0.133 0.525,0.068 0.793,-0.194 0.264,-0.258 0.334,-0.538 0.2,-0.799 -0.093,-0.183 -2.425,-2.507 -2.59,-2.581 -0.152,-0.069 -0.352,-0.07 -0.5,-0.003 m 10.1,0.016 c -0.123,0.057 -0.333,0.254 -1.335,1.259 -0.921,0.923 -1.202,1.221 -1.247,1.319 -0.076,0.165 -0.075,0.356 10e-4,0.518 0.07,0.15 0.3,0.386 0.455,0.467 0.157,0.082 0.39,0.081 0.553,-0.002 0.167,-0.086 2.477,-2.396 2.563,-2.563 0.083,-0.162 0.084,-0.396 0.003,-0.551 -0.082,-0.157 -0.294,-0.365 -0.454,-0.446 -0.179,-0.091 -0.344,-0.091 -0.539,-0.001 m -12.154,5.01 c -0.295,0.093 -0.441,0.328 -0.441,0.707 0.001,0.387 0.145,0.619 0.44,0.707 0.118,0.035 0.381,0.041 1.81,0.041 1.489,0 1.688,-0.005 1.81,-0.045 0.18,-0.058 0.326,-0.204 0.384,-0.384 0.086,-0.265 0.043,-0.641 -0.094,-0.827 -0.03,-0.04 -0.116,-0.107 -0.191,-0.148 l -0.137,-0.076 -1.733,-0.006 c -1.395,-0.004 -1.756,0.002 -1.848,0.031 m 11.046,-0.014 c -0.123,0.03 -0.293,0.133 -0.353,0.214 -0.137,0.185 -0.18,0.561 -0.094,0.826 0.058,0.18 0.204,0.326 0.384,0.384 0.122,0.04 0.321,0.045 1.81,0.045 1.429,0 1.692,-0.006 1.81,-0.041 0.295,-0.088 0.439,-0.32 0.44,-0.707 0,-0.385 -0.147,-0.616 -0.452,-0.708 -0.103,-0.031 -0.426,-0.037 -1.794,-0.035 -0.918,0.002 -1.706,0.012 -1.751,0.022 M 4.595,10.007234 c -0.123,0.057 -0.333,0.254 -1.335,1.259 -0.921,0.923 -1.202,1.221 -1.247,1.319 -0.076,0.165 -0.075,0.356 10e-4,0.518 0.07,0.15 0.3,0.386 0.455,0.467 0.157,0.082 0.39,0.081 0.553,-0.002 0.167,-0.086 2.477,-2.396 2.563,-2.563 0.083,-0.162 0.084,-0.396 0.003,-0.551 -0.082,-0.157 -0.294,-0.365 -0.454,-0.446 -0.179,-0.091 -0.344,-0.091 -0.539,-10e-4 m 5.9,-0.016 c -0.158,0.072 -0.391,0.3 -0.472,0.462 -0.084,0.169 -0.088,0.357 -0.012,0.525 0.074,0.165 2.398,2.497 2.581,2.59 0.259,0.133 0.525,0.068 0.793,-0.194 0.264,-0.258 0.334,-0.538 0.2,-0.799 -0.093,-0.183 -2.425,-2.507 -2.59,-2.581 -0.152,-0.069 -0.352,-0.07 -0.5,-0.003 m -3.008,1.011 c -0.125,0.032 -0.294,0.135 -0.353,0.215 -0.138,0.186 -0.139,0.199 -0.139,1.997 0,1.432 0.006,1.695 0.041,1.813 0.088,0.295 0.321,0.439 0.706,0.439 0.385,0 0.618,-0.144 0.706,-0.439 0.062,-0.212 0.061,-3.427 -0.002,-3.612 -0.06,-0.176 -0.129,-0.26 -0.284,-0.344 -0.11,-0.06 -0.174,-0.075 -0.363,-0.082 -0.127,-0.005 -0.267,10e-4 -0.312,0.013"
     stroke="none"
     fill-rule="evenodd"
     fill="#000000"
     id="path1" />
</svg>
