<?xml version="1.0" encoding="UTF-8" standalone="no"?>
<!-- Uploaded to: SVG Repo, www.svgrepo.com, Generator: SVG Repo Mixer Tools -->

<svg
   width="9.1171665"
   height="9.9498777"
   viewBox="0 0 10.984538 11.987805"
   fill="none"
   version="1.1"
   id="svg1"
   sodipodi:docname="prettier-16-svgrepo-com.svg"
   inkscape:version="1.3.2 (091e20e, 2023-11-25, custom)"
   xmlns:inkscape="http://www.inkscape.org/namespaces/inkscape"
   xmlns:sodipodi="http://sodipodi.sourceforge.net/DTD/sodipodi-0.dtd"
   xmlns="http://www.w3.org/2000/svg"
   xmlns:svg="http://www.w3.org/2000/svg">
  <defs
     id="defs1" />
  <sodipodi:namedview
     id="namedview1"
     pagecolor="#505050"
     bordercolor="#eeeeee"
     borderopacity="1"
     inkscape:showpageshadow="0"
     inkscape:pageopacity="0"
     inkscape:pagecheckerboard="0"
     inkscape:deskcolor="#d1d1d1"
     inkscape:zoom="1.52125"
     inkscape:cx="236.97617"
     inkscape:cy="311.91454"
     inkscape:window-width="2400"
     inkscape:window-height="1494"
     inkscape:window-x="-11"
     inkscape:window-y="325"
     inkscape:window-maximized="1"
     inkscape:current-layer="svg1" />
  <path
     d="m 0.45253819,0.05580452 c -0.257,0.116 -0.425,0.352 -0.447,0.627 -0.025,0.308 0.116,0.56299998 0.397,0.71899998 l 0.143,0.079 h 2.20000001 2.2 l 0.137,-0.072 c 0.277,-0.146 0.428,-0.41799998 0.403,-0.72599998 -0.022,-0.275 -0.19,-0.511 -0.447,-0.627 -0.117,-0.053 -0.165,-0.054 -2.293,-0.054 -2.12800001,0 -2.17600001,0.001 -2.29300001,0.054 m 7.03300001,-0.017 c -0.311,0.111 -0.532,0.476 -0.483,0.797 0.043,0.27799998 0.263,0.54099998 0.518,0.61599998 0.19,0.057 0.763,0.058 0.951,0.002 0.181,-0.054 0.382,-0.235 0.46,-0.417 0.073,-0.17099998 0.068,-0.45599998 -0.013,-0.62299998 -0.074,-0.152 -0.258,-0.321 -0.404,-0.37 -0.162,-0.056 -0.878,-0.059 -1.029,-0.005 M 0.45253819,3.5498045 c -0.597,0.269 -0.605,1.093 -0.014,1.374 0.133,0.063 0.141,0.063 1.05600001,0.063 l 0.922,0.001 0.164,-0.082 c 0.271,-0.135 0.412,-0.363 0.412,-0.665 0,-0.302 -0.141,-0.53 -0.412,-0.665 l -0.164,-0.082 -0.922,10e-4 c -0.86900001,0 -0.92900001,0.004 -1.04200001,0.055 m 4.58600001,-0.031 c -0.315,0.096 -0.532,0.39 -0.532,0.722 0,0.395 0.289,0.709 0.681,0.74 0.309,0.025 0.564,-0.116 0.718,-0.397 0.067,-0.122 0.078,-0.172 0.078,-0.343 0,-0.171 -0.011,-0.221 -0.078,-0.343 -0.095,-0.174 -0.245,-0.307 -0.408,-0.362 -0.127,-0.044 -0.345,-0.051 -0.459,-0.017 m 2.944,0.018 c -0.154,0.055 -0.32,0.206 -0.404,0.367 -0.059,0.113 -0.072,0.172 -0.072,0.337 0,0.242 0.08,0.42 0.255,0.569 0.208,0.179 0.227,0.181 1.534,0.172 1.1419998,-0.007 1.1729998,-0.009 1.2769998,-0.065 0.258,-0.14 0.412,-0.392 0.412,-0.676 0,-0.284 -0.154,-0.536 -0.412,-0.676 -0.105,-0.056 -0.132,-0.057 -1.2939998,-0.062 -0.989,-0.005 -1.205,0.001 -1.296,0.034 m -7.45800001,3.489 c -0.353,0.126 -0.551,0.426 -0.519,0.784 0.018,0.194 0.089,0.336 0.239,0.475 0.207,0.191 0.262,0.201 1.04900001,0.191 l 0.692,-0.008 0.124,-0.073 c 0.336,-0.198 0.477,-0.622 0.317,-0.959 -0.084,-0.178 -0.282,-0.355 -0.456,-0.406 -0.189,-0.057 -1.29100001,-0.059 -1.44600001,-0.004 m 4.00000001,0 c -0.353,0.126 -0.551,0.426 -0.519,0.784 0.024,0.267 0.194,0.502 0.447,0.616 0.117,0.052 0.167,0.054 2.028,0.054 2.146,10e-4 2.064,0.008 2.272,-0.195 0.156,-0.151 0.215,-0.286 0.228,-0.513 0.014,-0.248 -0.057,-0.419 -0.241,-0.585 -0.229,-0.206 -0.159,-0.199 -2.259,-0.198 -1.49,0.001 -1.875,0.008 -1.956,0.037 M 0.55353819,10.517805 c -0.688,0.189 -0.743,1.125 -0.084,1.423 0.093,0.042 0.232,0.047 1.52900001,0.047 h 1.427 l 0.125,-0.063 c 0.257,-0.127 0.448,-0.419 0.448,-0.684 0,-0.265 -0.191,-0.557 -0.448,-0.684 l -0.125,-0.063 -1.373,-0.005 c -1.05500001,-0.004 -1.40300001,0.002 -1.49900001,0.029"
     stroke="none"
     fill="#000000"
     fill-rule="evenodd"
     id="path1" />
</svg>
