<?xml version="1.0" encoding="UTF-8" standalone="no"?>
<!-- Uploaded to: SVG Repo, www.svgrepo.com, Generator: SVG Repo Mixer Tools -->

<svg
   width="9.9539995"
   height="9.9539995"
   viewBox="0 0 15.799999 15.799999"
   fill="none"
   version="1.1"
   id="svg1"
   sodipodi:docname="python-16-svgrepo-com.svg"
   inkscape:version="1.3.2 (091e20e, 2023-11-25, custom)"
   xmlns:inkscape="http://www.inkscape.org/namespaces/inkscape"
   xmlns:sodipodi="http://sodipodi.sourceforge.net/DTD/sodipodi-0.dtd"
   xmlns="http://www.w3.org/2000/svg"
   xmlns:svg="http://www.w3.org/2000/svg">
  <defs
     id="defs1" />
  <sodipodi:namedview
     id="namedview1"
     pagecolor="#505050"
     bordercolor="#eeeeee"
     borderopacity="1"
     inkscape:showpageshadow="0"
     inkscape:pageopacity="0"
     inkscape:pagecheckerboard="0"
     inkscape:deskcolor="#d1d1d1"
     inkscape:zoom="1.52125"
     inkscape:cx="400"
     inkscape:cy="400"
     inkscape:window-width="2400"
     inkscape:window-height="1494"
     inkscape:window-x="-11"
     inkscape:window-y="325"
     inkscape:window-maximized="1"
     inkscape:current-layer="svg1" />
  <path
     d="m 5.69,1.474 h 3.866 c 0.14,0 0.252,0.11 0.252,0.246 V 6.906 A 0.25,0.25 0 0 1 9.556,7.152 H 6.244 c -0.975,0 -1.766,0.77 -1.766,1.72 v 1.162 A 0.25,0.25 0 0 1 4.225,10.277 H 1.767 A 0.25,0.25 0 0 1 1.514,10.031 V 6.077 A 0.25,0.25 0 0 1 1.766,5.831 H 7.88 c 0.418,0 0.757,-0.33 0.757,-0.737 A 0.747,0.747 0 0 0 7.88,4.356 H 5.437 V 1.72 A 0.25,0.25 0 0 1 5.69,1.474 Z m 5.632,2.592 V 1.72 C 11.322,0.77 10.532,0 9.556,0 H 5.69 C 4.714,0 3.923,0.77 3.923,1.72 V 4.356 H 1.767 C 0.79,4.356 0,5.126 0,6.076 v 3.955 c 0,0.95 0.79,1.72 1.766,1.72 h 2.46 c 0.085,0 0.17,-0.006 0.252,-0.017 v 2.346 c 0,0.95 0.79,1.72 1.766,1.72 h 3.866 c 0.976,0 1.767,-0.77 1.767,-1.72 v -2.636 h 2.156 c 0.976,0 1.767,-0.77 1.767,-1.72 V 5.768 c 0,-0.95 -0.79,-1.72 -1.767,-1.72 h -2.458 c -0.086,0 -0.17,0.005 -0.253,0.017 z M 5.992,10.04 V 8.894 A 0.25,0.25 0 0 1 6.244,8.648 h 3.312 c 0.976,0 1.766,-0.77 1.766,-1.72 V 5.766 a 0.25,0.25 0 0 1 0.253,-0.243 h 2.458 c 0.14,0 0.253,0.11 0.253,0.246 V 9.723 A 0.25,0.25 0 0 1 14.034,9.969 H 7.92 a 0.747,0.747 0 0 0 -0.757,0.737 c 0,0.408 0.339,0.738 0.757,0.738 h 2.442 v 2.636 a 0.25,0.25 0 0 1 -0.253,0.246 H 6.244 A 0.25,0.25 0 0 1 5.992,14.08 Z"
     fill="#000000"
     id="path1" />
</svg>
