<?xml version="1.0" encoding="UTF-8" standalone="no"?>
<!-- Uploaded to: SVG Repo, www.svgrepo.com, Generator: SVG Repo Mixer Tools -->

<svg
   width="10.076098"
   height="9.765214"
   viewBox="0 0 15.993807 15.50034"
   fill="none"
   version="1.1"
   id="svg1"
   sodipodi:docname="vscode-16-svgrepo-com.svg"
   inkscape:version="1.3.2 (091e20e, 2023-11-25, custom)"
   xmlns:inkscape="http://www.inkscape.org/namespaces/inkscape"
   xmlns:sodipodi="http://sodipodi.sourceforge.net/DTD/sodipodi-0.dtd"
   xmlns="http://www.w3.org/2000/svg"
   xmlns:svg="http://www.w3.org/2000/svg">
  <defs
     id="defs1" />
  <sodipodi:namedview
     id="namedview1"
     pagecolor="#505050"
     bordercolor="#eeeeee"
     borderopacity="1"
     inkscape:showpageshadow="0"
     inkscape:pageopacity="0"
     inkscape:pagecheckerboard="0"
     inkscape:deskcolor="#d1d1d1"
     inkscape:zoom="1.52125"
     inkscape:cx="400"
     inkscape:cy="400"
     inkscape:window-width="2400"
     inkscape:window-height="1494"
     inkscape:window-x="-11"
     inkscape:window-y="325"
     inkscape:window-maximized="1"
     inkscape:current-layer="svg1" />
  <path
     d="m 11.566534,0.02833929 c -0.066,0.019 -0.152,0.052 -0.191,0.073 -0.039,0.021 -1.3829997,1.17200001 -2.9859997,2.55800001 -1.604,1.385 -2.934,2.518 -2.956,2.518 -0.022,0 -0.664,-0.468 -1.427,-1.04 -0.762,-0.571 -1.428,-1.057 -1.48,-1.078 -0.15,-0.063 -0.468,-0.05 -0.613,0.024 -0.166,0.086 -1.73100005,1.645 -1.82600005,1.82 -0.13,0.24 -0.114,0.554 0.04,0.766 0.041,0.057 0.575,0.557 1.18500005,1.11 0.611,0.553 1.107,1.015 1.102,1.026 -0.004,0.012 -0.495,0.442 -1.091,0.957 -0.59600005,0.514 -1.12200005,0.981 -1.16800005,1.036 -0.177,0.2139997 -0.206,0.5519997 -0.069,0.8039997 0.096,0.175 1.65900005,1.734 1.82700005,1.821 0.166,0.087 0.497,0.089 0.653,0.005 0.059,-0.031 0.7,-0.502 1.424,-1.046 l 1.318,-0.988 0.109,0.1 c 0.06,0.055 1.289,1.168 2.73,2.473 1.846,1.671 2.6659997,2.396 2.7719997,2.453 l 0.15,0.08 h 0.674 0.674 l 1.631,-0.814 c 1.5,-0.748 1.64,-0.823 1.748,-0.942 0.213,-0.237 0.197,0.241 0.197,-5.7379997 0,-5.821 0.009,-5.468 -0.151,-5.699 -0.058,-0.084 -0.41,-0.331 -1.634,-1.148 -0.857,-0.57200001 -1.613,-1.06500001 -1.68,-1.09500001 -0.1,-0.045 -0.187,-0.056 -0.482,-0.063 -0.237,-0.005 -0.401,0.004 -0.48,0.027 m 1.699,2.30500001 1.233,0.82 0.001,4.82 10e-4,4.8199997 -1.205,0.6 -1.204,0.6 h -0.285 -0.284 l -2.8689997,-2.596 c -1.578,-1.4279997 -2.912,-2.6159997 -2.963,-2.6409997 -0.199,-0.094 -0.5,-0.101 -0.661,-0.014 -0.034,0.018 -0.651,0.475 -1.372,1.015 -0.721,0.5409997 -1.322,0.9829997 -1.335,0.9829997 -0.03,0 -0.477,-0.448 -0.461,-0.462 0.673,-0.5769997 2.078,-1.7939997 2.182,-1.8909997 0.086,-0.081 0.169,-0.192 0.21,-0.28 0.057,-0.127 0.065,-0.174 0.054,-0.343 -0.01,-0.158 -0.028,-0.223 -0.091,-0.324 -0.053,-0.086 -0.454,-0.466 -1.229,-1.167 l -1.15,-1.04 0.231,-0.233 c 0.127,-0.129 0.242,-0.234 0.256,-0.234 0.013,0 0.644,0.465 1.4,1.033 1.496,1.123 1.537,1.148 1.81,1.116 0.078,-0.009 0.192,-0.04 0.253,-0.069 0.062,-0.029 0.503,-0.39 0.979,-0.802 0.477,-0.412 1.011,-0.874 1.187,-1.026 0.176,-0.152 1.16,-1.002 2.1869997,-1.89 1.026,-0.887 1.872,-1.614 1.879,-1.614 0.008,-0.001 0.568,0.368 1.246,0.819 m -1.632,1.677 c -0.029,0.006 -0.101,0.029 -0.16,0.051 -0.059,0.021 -1.079,0.738 -2.2669997,1.593 -2.346,1.689 -2.293,1.646 -2.362,1.953 -0.026,0.115 -0.026,0.177 0,0.292 0.068,0.307 0.017,0.264 2.362,1.953 1.1879997,0.8549997 2.2139997,1.5759997 2.2799997,1.6009997 0.347,0.133 0.743,-0.029 0.929,-0.38 l 0.071,-0.133 v -3.1869997 -3.187 l -0.071,-0.133 c -0.089,-0.168 -0.214,-0.289 -0.369,-0.356 -0.127,-0.056 -0.324,-0.088 -0.413,-0.067 m -0.66,4.5 -0.007,0.757 -1.0459997,-0.75 c -0.575,-0.413 -1.046,-0.757 -1.046,-0.764 0,-0.007 0.471,-0.351 1.046,-0.764 l 1.0459997,-0.75 0.007,0.757 c 0.004,0.416 0.004,1.098 0,1.514"
     stroke="none"
     fill="#000000"
     fill-rule="evenodd"
     id="path1" />
</svg>
